#N canvas 369 62 996 753 12;
#X declare -path patches;
#X obj 100 101 cnv 15 800 81 empty empty LUCIBOX 20 36 0 45 #144050 #548ca0 0;
#N canvas 436 23 1211 813 patch 1;
#X obj 101 101 cnv 15 138 40 empty empty PATCH 20 12 0 14 #404040 #fcfcfc 0;
#X obj 250 -2 audio/mic;
#X obj 250 -29 adc~;
#X obj 270 779 dac~;
#X obj 38 100 bng 35 250 50 0 empty empty CLOSE 4 20 0 10 #fcfcfc #000000 #000000;
#X msg 38 164 \; pd-patch vis 0;
#N canvas 447 412 1038 529 open 0;
#X text 462 314 label-color;
#X text 477 339 label-color;
#X obj 377 311 t b f;
#X msg 400 277 2;
#X obj 466 220 loadbang;
#X obj 104 101 hradio 15 1 0 2 empty empty empty 0 -8 0 10 #fcfcfc #000000 #000000 0;
#X obj 104 166 bang;
#X msg 363 277 43;
#X obj 101 101 cnv 15 38 15 empty \$0_opencnv open 6 8 0 10 #404040 #fcfcfc 0;
#X msg 405 398 \; \$4_opencnv color \$1 \$2 \$3;
#X obj 363 197 bang;
#X obj 404 365 pack 43 0 0 \$0;
#X obj 400 220 delay 200;
#X msg 101 247 \; pd-patch vis 1;
#X msg 614 289 \; pd-patch vis 0;
#X connect 2 1 11 0;
#X connect 3 0 2 0;
#X connect 4 0 3 0;
#X connect 4 0 14 0;
#X connect 5 0 6 0;
#X connect 6 0 10 0;
#X connect 6 0 13 0;
#X connect 7 0 2 0;
#X connect 10 0 7 0;
#X connect 10 0 12 0;
#X connect 11 0 9 0;
#X connect 12 0 3 0;
#X coords 0 -1 1 1 40 17 2 100 100;
#X restore 177 107 pd open;
#X text 22 368 Manage Reset when;
#X text 27 433 no module selected and long press;
#X obj 267 478 *~ 1;
#N canvas 692 284 715 453 autostop_from_loop 0;
#X obj 155 39 extra/sv 1_1_is_loop_playing;
#X obj 188 62 extra/sv 2_1_is_loop_playing;
#X obj 215 85 extra/sv 3_1_is_loop_playing;
#X obj 232 107 extra/sv 4_1_is_loop_playing;
#X obj 162 195 extra/sv 1_1_is_loop_playing;
#X obj 142 220 extra/sv 2_1_is_loop_playing;
#X obj 122 241 extra/sv 3_1_is_loop_playing;
#X obj 102 264 extra/sv 4_1_is_loop_playing;
#X obj 217 151 bng 15 250 50 0 empty empty empty 17 7 0 10 #fcfcfc #000000 #000000;
#X obj 230 171 t b b b b;
#X obj 337 241 +;
#X obj 319 266 +;
#X obj 301 289 +;
#X floatatom 301 309 5 0 0 0 - - - 0;
#X obj 301 345 sel 0;
#X obj 300 383 s tempoStopIn;
#X obj 280 384 bng 15 250 50 0 empty empty empty 17 7 0 10 #fcfcfc #000000 #000000;
#X obj 469 239 print loop1;
#X obj 468 269 print loop2;
#X obj 469 299 print loop3;
#X obj 469 329 print loop4;
#X obj 469 109 print playloop1;
#X obj 468 139 print playloop2;
#X obj 469 169 print playloop3;
#X obj 469 199 print playloop4;
#X text 454 40 This patch stop the global player \, if all looper are stop;
#X text 49 346 De-activate with ableton link;
#X connect 0 0 8 0;
#X connect 1 0 8 0;
#X connect 2 0 8 0;
#X connect 3 0 8 0;
#X connect 4 1 10 1;
#X connect 5 1 10 0;
#X connect 6 1 11 0;
#X connect 7 1 12 0;
#X connect 8 0 9 0;
#X connect 9 0 7 2;
#X connect 9 1 6 2;
#X connect 9 2 5 2;
#X connect 9 3 4 2;
#X connect 10 0 11 1;
#X connect 11 0 12 1;
#X connect 12 0 13 0;
#X connect 13 0 14 0;
#X connect 14 0 16 0;
#X connect 14 0 15 0;
#X restore 22 383 pd autostop_from_loop;
#X obj 271 224 *~ 1;
#N canvas 104 71 562 318 global_play_delete 0;
#N canvas 293 165 623 468 longORshort 0;
#X obj 153 75 inlet;
#X obj 152 180 timer;
#X obj 153 119 sel 0;
#X obj 187 149 bang;
#X obj 151 224 > 500;
#X obj 151 298 bng 15 250 50 0 empty empty empty 17 7 0 10 #fcfcfc #000000 #000000;
#X obj 151 419 outlet;
#X obj 223 417 outlet;
#X obj 380 102 sel 0;
#X obj 398 239 i 0;
#X obj 398 270 sel 0;
#X obj 431 312 bng 15 250 50 0 empty empty empty 17 7 0 10 #fcfcfc #000000 #000000;
#X obj 182 296 bng 15 250 50 0 empty empty empty 17 7 0 10 #fcfcfc #000000 #000000;
#X obj 398 310 bng 15 250 50 0 empty empty empty 17 7 0 10 #fcfcfc #000000 #000000;
#X obj 151 256 sel 0 1;
#X obj 451 234 bng 15 250 50 0 empty empty empty 17 7 0 10 #fcfcfc #000000 #000000;
#X obj 458 160 bng 15 250 50 0 empty empty empty 17 7 0 10 #fcfcfc #000000 #000000;
#X obj 444 196 delay 1000;
#X connect 0 0 2 0;
#X connect 0 0 8 0;
#X connect 0 0 9 1;
#X connect 1 0 4 0;
#X connect 2 0 1 1;
#X connect 2 1 3 0;
#X connect 3 0 1 0;
#X connect 4 0 14 0;
#X connect 5 0 6 0;
#X connect 8 1 16 0;
#X connect 9 0 10 0;
#X connect 10 0 13 0;
#X connect 10 1 11 0;
#X connect 11 0 7 0;
#X connect 14 0 5 0;
#X connect 14 1 12 0;
#X connect 16 0 17 0;
#X connect 17 0 9 0;
#X connect 17 0 15 0;
#X restore 143 115 pd longORshort;
#X obj 176 35 extra/sv module_selected;
#X obj 143 85 spigot;
#X obj 143 15 extra/sv global_play;
#X obj 176 58 == 0;
#X obj 306 178 extra/sv tempo_isplaying;
#X msg 262 153 0;
#X obj 173 168 bang;
#X obj 173 214 s bigReset;
#X obj 217 137 t b b;
#X obj 280 132 bng 15 250 50 0 empty empty empty 17 7 0 10 #fcfcfc #000000 #000000;
#X obj -2 194 extra/sv tempo_isplaying;
#X obj 307 203 s 1_1_loop_clear;
#X obj 307 224 s 2_1_loop_clear;
#X obj 307 244 s 3_1_loop_clear;
#X obj 307 264 s 4_1_loop_clear;
#X msg 312 153 1;
#X connect 0 0 11 0;
#X connect 0 1 9 0;
#X connect 0 1 10 0;
#X connect 1 0 4 0;
#X connect 2 0 0 0;
#X connect 3 0 2 0;
#X connect 4 0 2 1;
#X connect 6 0 12 0;
#X connect 6 0 13 0;
#X connect 6 0 14 0;
#X connect 6 0 15 0;
#X connect 7 0 8 0;
#X connect 9 0 7 0;
#X connect 9 1 6 0;
#X connect 9 1 16 0;
#X connect 16 0 5 1;
#X restore 26 456 pd global_play_delete;
#X obj 21 309 audio/tempo;
#N canvas 72 114 1555 775 midicontrol 0;
#X obj 70 89 s bela_setDigital;
#X obj 70 35 loadbang;
#X msg 70 62 in 11 \, in 12 \, in 13 \, in 14 \, in 15 \, in 16;
#X msg 373 62 in 17 \, in 18 \, in 19 \, in 20 \, in 21 \, in 22;
#X msg 673 61 out 24 \, out 25 \, out 26;
#X obj 243 112 cnv 15 300 600 empty empty empty 20 12 0 14 #dcdcdc #404040 0;
#X obj 277 142 r bela_digitalIn11;
#X obj 297 167 r bela_digitalIn12;
#X obj 326 193 r bela_digitalIn13;
#X obj 351 217 r bela_digitalIn14;
#X obj 384 242 r bela_digitalIn15;
#X obj 401 266 r bela_digitalIn16;
#X obj 212 479 extra/sv 1_1_loop_recbutton;
#X obj 231 506 extra/sv 1_1_loop_playbutton;
#X obj 261 530 extra/sv 2_1_loop_recbutton;
#X obj 286 560 extra/sv 2_1_loop_playbutton;
#X obj 318 596 extra/sv 3_1_loop_recbutton;
#X obj 336 640 extra/sv 3_1_loop_playbutton;
#X obj 276 310 hardware/debounce;
#X obj 295 339 hardware/debounce;
#X obj 324 366 hardware/debounce;
#X obj 350 394 hardware/debounce;
#X obj 383 417 hardware/debounce;
#X obj 402 446 hardware/debounce;
#X obj 571 112 cnv 15 300 600 empty empty empty 20 12 0 14 #dcdcdc #404040 0;
#X obj 614 119 r bela_digitalIn17;
#X obj 635 142 r bela_digitalIn18;
#X obj 666 165 r bela_digitalIn19;
#X obj 687 191 r bela_digitalIn20;
#X obj 715 218 r bela_digitalIn21;
#X obj 737 242 r bela_digitalIn22;
#X obj 711 739 extra/sv octaver_on;
#X obj 672 667 extra/sv reverb_on;
#X obj 754 714 tgl 19 0 empty empty empty 0 -10 0 12 #fcfcfc #000000 #000000 0 1;
#X obj 713 641 tgl 19 0 empty empty empty 0 -10 0 12 #fcfcfc #000000 #000000 0 1;
#X obj 569 487 extra/sv 1_1_fileplayer_playstop;
#X obj 1337 94 cnv 15 300 600 empty empty empty 20 12 0 14 #dcdcdc #404040 0;
#X obj 930 102 cnv 15 300 600 empty empty empty 20 12 0 14 #dcdcdc #404040 0;
#X obj 1486 518 extra/sv octaver;
#X obj 1581 488 extra/sv reverb_room;
#X obj 1611 430 hsl 162 19 0 255 0 0 empty empty empty -2 -10 0 12 #fcfcfc #000000 #000000 0 1;
#X obj 1582 462 extra/sv reverb_drywet;
#X obj 943 224 tgl 40 0 empty empty empty 17 7 0 10 #fc0400 #000000 #000000 0 1;
#X obj 1000 225 tgl 40 0 empty empty empty 17 7 0 10 #fc0400 #000000 #000000 0 1;
#X obj 1081 226 tgl 40 0 empty empty empty 17 7 0 10 #fc0400 #000000 #000000 0 1;
#X obj 943 341 s bela_digitalOut24;
#X obj 1000 314 s bela_digitalOut25;
#X obj 1081 283 s bela_digitalOut26;
#X obj 942 137 extra/sv 1_1_loop_ledmono;
#X obj 999 164 extra/sv 2_1_loop_ledmono;
#X obj 1081 192 extra/sv 3_1_loop_ledmono;
#X obj 1499 108 adc~ 3 4 5 6 7 8;
#X obj 1499 259 snapshot~;
#X obj 1520 233 snapshot~;
#X obj 1541 212 snapshot~;
#X obj 1562 186 snapshot~;
#X obj 1586 161 snapshot~;
#X obj 1608 135 snapshot~;
#X obj 1354 95 loadbang;
#X obj 1354 119 metro 100;
#X obj 1354 152 t b b b b b b;
#X obj 1497 397 i 0;
#X obj 1519 369 i 0;
#X obj 1544 346 i 0;
#X obj 1571 322 i 0;
#X obj 1590 297 i 0;
#X obj 1614 270 i 0;
#X obj 1611 212 * 255;
#X obj 1590 235 * 255;
#X obj 1571 258 * 255;
#X obj 1544 283 * 255;
#X obj 1520 309 * 255;
#X obj 1498 339 * 255;
#X obj 580 518 extra/sv 2_1_fileplayer_playstop;
#X obj 591 551 extra/sv 3_1_fileplayer_playstop;
#X obj 1377 603 extra/sv 1_1_loop_volume;
#X obj 1497 427 change;
#X obj 1531 400 change;
#X obj 1557 375 change;
#X obj 1579 348 change;
#X obj 1608 322 change;
#X obj 1627 295 change;
#X obj 1412 572 extra/sv 2_1_loop_volume;
#X obj 1441 544 extra/sv 3_1_loop_volume;
#X obj 611 240 hardware/debounce;
#X obj 630 269 hardware/debounce;
#X obj 659 296 hardware/debounce;
#X obj 771 419 hardware/debounce;
#X obj 890 715 sel 0;
#X obj 610 392 sel 0;
#X obj 628 360 sel 0;
#X obj 657 336 sel 0;
#X obj 558 449 s fileplayer_stop;
#X obj 642 418 t f b;
#X obj 689 363 t f b;
#X obj 660 389 t f b;
#X obj 872 739 extra/sv global_fadeout;
#X obj 680 591 sel 0;
#X obj 712 616 bang;
#X obj 729 591 sel 0;
#X obj 761 616 bang;
#X obj 735 364 hardware/debounce2;
#X obj 758 392 hardware/debounce2;
#X connect 1 0 2 0;
#X connect 1 0 3 0;
#X connect 1 0 4 0;
#X connect 2 0 0 0;
#X connect 3 0 0 0;
#X connect 4 0 0 0;
#X connect 6 0 18 0;
#X connect 7 0 19 0;
#X connect 8 0 20 0;
#X connect 9 0 21 0;
#X connect 10 0 22 0;
#X connect 11 0 23 0;
#X connect 18 0 12 1;
#X connect 19 0 13 1;
#X connect 20 0 14 1;
#X connect 21 0 15 1;
#X connect 22 0 16 1;
#X connect 23 0 17 1;
#X connect 25 0 84 0;
#X connect 26 0 85 0;
#X connect 27 0 86 0;
#X connect 28 0 101 0;
#X connect 29 0 102 0;
#X connect 30 0 87 0;
#X connect 33 0 31 1;
#X connect 34 0 32 1;
#X connect 40 0 41 1;
#X connect 40 0 39 1;
#X connect 42 0 45 0;
#X connect 43 0 46 0;
#X connect 44 0 47 0;
#X connect 48 0 42 0;
#X connect 49 0 43 0;
#X connect 50 0 44 0;
#X connect 51 0 52 0;
#X connect 51 1 53 0;
#X connect 51 2 54 0;
#X connect 51 3 55 0;
#X connect 51 4 56 0;
#X connect 51 5 57 0;
#X connect 52 0 72 0;
#X connect 53 0 71 0;
#X connect 54 0 70 0;
#X connect 55 0 69 0;
#X connect 56 0 68 0;
#X connect 57 0 67 0;
#X connect 58 0 59 0;
#X connect 59 0 60 0;
#X connect 60 0 52 0;
#X connect 60 1 53 0;
#X connect 60 2 54 0;
#X connect 60 3 55 0;
#X connect 60 4 56 0;
#X connect 60 5 57 0;
#X connect 61 0 76 0;
#X connect 62 0 77 0;
#X connect 63 0 78 0;
#X connect 64 0 79 0;
#X connect 65 0 80 0;
#X connect 66 0 81 0;
#X connect 67 0 66 0;
#X connect 68 0 65 0;
#X connect 69 0 64 0;
#X connect 70 0 63 0;
#X connect 71 0 62 0;
#X connect 72 0 61 0;
#X connect 76 0 75 1;
#X connect 77 0 82 1;
#X connect 78 0 83 1;
#X connect 79 0 38 1;
#X connect 80 0 40 0;
#X connect 84 0 89 0;
#X connect 85 0 90 0;
#X connect 86 0 91 0;
#X connect 87 0 88 0;
#X connect 88 1 96 1;
#X connect 89 1 93 0;
#X connect 90 1 95 0;
#X connect 91 1 94 0;
#X connect 93 0 35 1;
#X connect 93 1 92 0;
#X connect 94 0 74 1;
#X connect 94 1 92 0;
#X connect 95 0 73 1;
#X connect 95 1 92 0;
#X connect 97 1 98 0;
#X connect 98 0 34 0;
#X connect 99 1 100 0;
#X connect 100 0 33 0;
#X connect 101 0 97 0;
#X connect 102 0 99 0;
#X restore 21 270 pd midicontrol;
#X obj 57 51 declare -path patches;
#X obj 363 271 clone -s 1 audio/loop 3 1 1 1 1 0;
#X obj 668 282 clone -s 1 audio/fileplayer 4 1;
#X obj 463 543 extra/sv reverb_room;
#X obj 347 465 extra/sv reverb_drywet;
#X obj 543 410 loadbang;
#X obj 325 693 *~;
#X obj 326 662 effect/reverb1~;
#X msg 544 467 4;
#N canvas 130 145 450 300 activate 0;
#X obj 126 60 inlet~;
#X obj 122 207 outlet~;
#X obj 230 89 line~;
#X msg 231 52 1 10;
#X obj 124 135 *~;
#X msg 291 52 0 10;
#X obj 262 13 sel 1 0;
#X obj 262 -13 inlet;
#X connect 0 0 4 0;
#X connect 2 0 4 1;
#X connect 3 0 2 0;
#X connect 4 0 1 0;
#X connect 5 0 2 0;
#X connect 6 0 3 0;
#X connect 6 1 5 0;
#X connect 7 0 6 0;
#X restore 438 59 pd activate;
#N canvas 130 145 450 300 activate 0;
#X obj 126 60 inlet~;
#X obj 122 207 outlet~;
#X obj 230 89 line~;
#X msg 231 52 1 10;
#X obj 124 135 *~;
#X msg 291 52 0 10;
#X obj 262 13 sel 1 0;
#X obj 262 -13 inlet;
#X connect 0 0 4 0;
#X connect 2 0 4 1;
#X connect 3 0 2 0;
#X connect 4 0 1 0;
#X connect 5 0 2 0;
#X connect 6 0 3 0;
#X connect 6 1 5 0;
#X connect 7 0 6 0;
#X restore 326 637 pd activate;
#N canvas 110 143 450 300 scale 0;
#X obj 157 22 inlet;
#X obj 159 256 outlet;
#X floatatom 157 170 0 0 120 0 - - - 0;
#X obj 157 146 * 100;
#X obj 156 122 sqrt;
#X floatatom 157 220 5 0 0 0 - - - 0;
#X obj 157 193 / 100;
#X obj 155 67 / 255;
#X connect 0 0 7 0;
#X connect 2 0 6 0;
#X connect 3 0 2 0;
#X connect 4 0 3 0;
#X connect 5 0 1 0;
#X connect 6 0 5 0;
#X connect 7 0 4 0;
#X restore 347 491 pd scale;
#X obj 263 683 *~ 1;
#X obj 649 551 extra/sv reverb_on;
#X obj 510 26 extra/sv octaver_on;
#X msg 542 434 10;
#X obj 457 628 bng 19 250 50 0 empty empty empty 0 -10 0 12 #fcfcfc #000000 #000000;
#X obj 459 578 / 3;
#N canvas 0 23 642 362 global_fadeout 0;
#X obj 153 -10 inlet~;
#X obj 151 252 outlet~;
#X obj 151 220 *~;
#X obj 233 151 line~;
#X obj 246 22 loadbang;
#X msg 246 54 1;
#X msg 327 55 0 10000;
#X obj 328 21 t b b;
#X obj 396 55 delay 10000;
#X obj 317 256 s 1_1_action;
#X obj 410 256 s 2_1_action;
#X msg 396 214 clear;
#X obj 503 256 s 3_1_action;
#X obj 396 85 t b b;
#X msg 428 132 1 100;
#X obj 327 -13 extra/sv global_fadeout;
#X connect 0 0 2 0;
#X connect 2 0 1 0;
#X connect 3 0 2 1;
#X connect 4 0 5 0;
#X connect 5 0 3 0;
#X connect 6 0 3 0;
#X connect 7 0 6 0;
#X connect 7 1 8 0;
#X connect 8 0 13 0;
#X connect 11 0 10 0;
#X connect 11 0 12 0;
#X connect 11 0 9 0;
#X connect 13 0 11 0;
#X connect 13 1 14 0;
#X connect 14 0 3 0;
#X connect 15 0 7 0;
#X restore 326 358 pd global_fadeout;
#X obj 438 92 audio/octaver_light;
#X connect 1 1 11 0;
#X connect 1 1 24 0;
#X connect 2 0 1 0;
#X connect 2 1 1 0;
#X connect 4 0 5 0;
#X connect 9 0 25 0;
#X connect 9 0 27 0;
#X connect 11 0 9 0;
#X connect 11 0 16 0;
#X connect 16 0 33 0;
#X connect 17 0 9 0;
#X connect 18 0 32 0;
#X connect 19 0 26 0;
#X connect 20 0 30 0;
#X connect 20 0 23 0;
#X connect 21 0 3 0;
#X connect 21 0 3 1;
#X connect 22 0 21 0;
#X connect 23 0 18 1;
#X connect 24 0 34 0;
#X connect 25 0 22 0;
#X connect 26 0 21 1;
#X connect 27 0 3 0;
#X connect 27 0 3 1;
#X connect 28 0 25 1;
#X connect 29 0 24 1;
#X connect 30 0 19 1;
#X connect 31 0 22 2;
#X connect 32 0 22 1;
#X connect 33 0 9 0;
#X connect 34 0 11 0;
#X coords 0 -1 1 1 140 42 2 100 100;
#X restore 317 118 pd patch;
#X coords 0 -1 1 1 800 83 1 100 100;
