#N canvas 369 62 996 753 12;
#X declare -path patches;
#X obj 100 101 cnv 15 800 81 empty empty LUCIBOX 20 36 0 45 -21525
-88297 0;
#N canvas 694 80 1051 813 patch 1;
#X obj 101 101 cnv 15 138 40 empty empty PATCH 20 12 0 14 -66577 -262144
0;
#X obj 250 -2 audio/mic;
#X obj 250 -29 adc~;
#X obj 270 752 dac~;
#X obj 38 100 bng 35 250 50 0 empty empty CLOSE 4 20 0 10 -262144 -1
-1;
#X msg 38 164 \; pd-patch vis 0;
#N canvas 447 412 1038 529 open 0;
#X text 462 314 label-color;
#X text 477 339 label-color;
#X obj 377 311 t b f;
#X msg 400 277 2;
#X obj 466 220 loadbang;
#X obj 104 101 hradio 15 1 0 2 empty empty empty 0 -8 0 10 -262144
-1 -1 1;
#X obj 104 166 bang;
#X msg 363 277 43;
#X obj 101 101 cnv 15 38 15 empty \$0_opencnv open 6 8 0 10 -66577
-262144 0;
#X msg 405 398 \; \$4_opencnv color \$1 \$2 \$3;
#X obj 363 197 bang;
#X obj 404 365 pack 43 0 0 \$0;
#X obj 400 220 delay 200;
#X msg 101 247 \; pd-patch vis 1;
#X msg 614 289 \; pd-patch vis 0;
#X connect 2 1 11 0;
#X connect 3 0 2 0;
#X connect 4 0 3 0;
#X connect 4 0 14 0;
#X connect 5 0 6 0;
#X connect 6 0 10 0;
#X connect 6 0 13 0;
#X connect 7 0 2 0;
#X connect 10 0 7 0;
#X connect 10 0 12 0;
#X connect 11 0 9 0;
#X connect 12 0 3 0;
#X coords 0 -1 1 1 40 17 2 100 100;
#X restore 177 107 pd open;
#X text 22 368 Manage Reset when;
#X text 27 433 no module selected and long press;
#X obj 267 478 *~ 1;
#N canvas 674 350 715 453 autostop_from_loop 0;
#X obj 155 39 extra/sv 1_1_is_loop_playing;
#X obj 188 62 extra/sv 2_1_is_loop_playing;
#X obj 215 85 extra/sv 3_1_is_loop_playing;
#X obj 232 107 extra/sv 4_1_is_loop_playing;
#X obj 162 195 extra/sv 1_1_is_loop_playing;
#X obj 142 220 extra/sv 2_1_is_loop_playing;
#X obj 122 241 extra/sv 3_1_is_loop_playing;
#X obj 102 264 extra/sv 4_1_is_loop_playing;
#X obj 217 151 bng 15 250 50 0 empty empty empty 17 7 0 10 -262144
-1 -1;
#X obj 230 171 t b b b b;
#X obj 337 241 +;
#X obj 319 266 +;
#X obj 301 289 +;
#X floatatom 301 309 5 0 0 0 - - -;
#X obj 301 345 sel 0;
#X obj 300 383 s tempoStopIn;
#X obj 280 384 bng 15 250 50 0 empty empty empty 17 7 0 10 -262144
-1 -1;
#X obj 469 239 print loop1;
#X obj 468 269 print loop2;
#X obj 469 299 print loop3;
#X obj 469 329 print loop4;
#X obj 469 109 print playloop1;
#X obj 468 139 print playloop2;
#X obj 469 169 print playloop3;
#X obj 469 199 print playloop4;
#X text 454 40 This patch stop the global player \, if all looper are
stop;
#X text 49 346 De-activate with ableton link;
#X connect 0 0 8 0;
#X connect 1 0 8 0;
#X connect 2 0 8 0;
#X connect 3 0 8 0;
#X connect 4 1 10 1;
#X connect 5 1 10 0;
#X connect 6 1 11 0;
#X connect 7 1 12 0;
#X connect 8 0 9 0;
#X connect 9 0 7 2;
#X connect 9 1 6 2;
#X connect 9 2 5 2;
#X connect 9 3 4 2;
#X connect 10 0 11 1;
#X connect 11 0 12 1;
#X connect 12 0 13 0;
#X connect 13 0 14 0;
#X connect 14 0 16 0;
#X connect 14 0 15 0;
#X restore 22 383 pd autostop_from_loop;
#X obj 271 224 *~ 1;
#N canvas 104 71 562 318 global_play_delete 0;
#N canvas 293 165 623 468 longORshort 0;
#X obj 153 75 inlet;
#X obj 152 180 timer;
#X obj 153 119 sel 0;
#X obj 187 149 bang;
#X obj 151 224 > 500;
#X obj 151 298 bng 15 250 50 0 empty empty empty 17 7 0 10 -262144
-1 -1;
#X obj 151 419 outlet;
#X obj 223 417 outlet;
#X obj 380 102 sel 0;
#X obj 398 239 i 0;
#X obj 398 270 sel 0;
#X obj 431 312 bng 15 250 50 0 empty empty empty 17 7 0 10 -262144
-1 -1;
#X obj 182 296 bng 15 250 50 0 empty empty empty 17 7 0 10 -262144
-1 -1;
#X obj 398 310 bng 15 250 50 0 empty empty empty 17 7 0 10 -262144
-1 -1;
#X obj 151 256 sel 0 1;
#X obj 451 234 bng 15 250 50 0 empty empty empty 17 7 0 10 -262144
-1 -1;
#X obj 458 160 bng 15 250 50 0 empty empty empty 17 7 0 10 -262144
-1 -1;
#X obj 444 196 delay 1000;
#X connect 0 0 2 0;
#X connect 0 0 8 0;
#X connect 0 0 9 1;
#X connect 1 0 4 0;
#X connect 2 0 1 1;
#X connect 2 1 3 0;
#X connect 3 0 1 0;
#X connect 4 0 14 0;
#X connect 5 0 6 0;
#X connect 8 1 16 0;
#X connect 9 0 10 0;
#X connect 10 0 13 0;
#X connect 10 1 11 0;
#X connect 11 0 7 0;
#X connect 14 0 5 0;
#X connect 14 1 12 0;
#X connect 16 0 17 0;
#X connect 17 0 9 0;
#X connect 17 0 15 0;
#X restore 143 115 pd longORshort;
#X obj 176 35 extra/sv module_selected;
#X obj 143 85 spigot;
#X obj 143 15 extra/sv global_play;
#X obj 176 58 == 0;
#X obj 306 178 extra/sv tempo_isplaying;
#X msg 262 153 0;
#X obj 173 168 bang;
#X obj 173 214 s bigReset;
#X obj 217 137 t b b;
#X obj 280 132 bng 15 250 50 0 empty empty empty 17 7 0 10 -262144
-1 -1;
#X obj -2 194 extra/sv tempo_isplaying;
#X obj 307 203 s 1_1_loop_clear;
#X obj 307 224 s 2_1_loop_clear;
#X obj 307 244 s 3_1_loop_clear;
#X obj 307 264 s 4_1_loop_clear;
#X msg 312 153 1;
#X connect 0 0 11 0;
#X connect 0 1 9 0;
#X connect 0 1 10 0;
#X connect 1 0 4 0;
#X connect 2 0 0 0;
#X connect 3 0 2 0;
#X connect 4 0 2 1;
#X connect 6 0 12 0;
#X connect 6 0 13 0;
#X connect 6 0 14 0;
#X connect 6 0 15 0;
#X connect 7 0 8 0;
#X connect 9 0 7 0;
#X connect 9 1 6 0;
#X connect 9 1 16 0;
#X connect 16 0 5 1;
#X restore 26 456 pd global_play_delete;
#X obj 21 309 audio/tempo;
#N canvas 187 206 1067 465 midicontrol 0;
#X obj 116 262 extra/sv 1_1_loop_recbutton;
#X obj 316 262 extra/sv 2_1_loop_recbutton;
#X obj 520 262 extra/sv 3_1_loop_recbutton;
#X obj 720 262 extra/sv 4_1_loop_recbutton;
#X floatatom 37 381 5 0 0 0 - - -;
#X obj 178 223 ctlin 64;
#X obj 377 225 ctlin 65;
#X obj 581 224 ctlin 66;
#X obj 782 224 ctlin 67;
#X obj 37 340 ctlin;
#X floatatom 47 401 5 0 0 0 - - -;
#X obj 110 338 extra/sv 1_1_loop_playbutton;
#X obj 310 338 extra/sv 2_1_loop_playbutton;
#X obj 514 338 extra/sv 3_1_loop_playbutton;
#X obj 714 338 extra/sv 4_1_loop_playbutton;
#X obj 172 299 ctlin 48;
#X obj 371 301 ctlin 49;
#X obj 575 300 ctlin 50;
#X obj 776 300 ctlin 51;
#X connect 5 0 0 1;
#X connect 6 0 1 1;
#X connect 7 0 2 1;
#X connect 8 0 3 1;
#X connect 9 0 4 0;
#X connect 9 1 10 0;
#X connect 15 0 11 1;
#X connect 16 0 12 1;
#X connect 17 0 13 1;
#X connect 18 0 14 1;
#X restore 21 270 pd midicontrol;
#X obj 57 51 declare -path patches;
#X obj 363 271 clone -s 1 audio/loop 3 1 1 1 1 0;
#X obj 668 282 clone -s 1 audio/fileplayer 4 1;
#X obj 355 520 extra/sv reverb_room;
#X obj 306 466 extra/sv reverb_drywet;
#X floatatom 313 569 0 0 120 0 - - -;
#X text 354 569 level \, dB;
#X floatatom 357 593 0 0 100 0 - - -;
#X text 398 593 liveness \, 0-100;
#X floatatom 401 619 0 0 10000 0 - - -;
#X floatatom 445 643 0 0 100 0 - - -;
#X text 432 619 crossover frequency \, Hz.;
#X obj 355 546 / 1;
#X obj 151 686 *~;
#X floatatom 190 650 5 0 0 0 - - -;
#X obj 191 615 expr (100 - $f1)/100;
#X obj 270 674 rev2~ 95 84 18018 88;
#X obj 438 92 audio/octaver;
#X obj 305 537 * 100;
#X obj 305 490 sqrt;
#X obj 304 513 sqrt;
#X connect 1 1 32 0;
#X connect 1 1 11 0;
#X connect 2 0 1 0;
#X connect 2 1 1 0;
#X connect 4 0 5 0;
#X connect 9 0 28 0;
#X connect 9 0 31 0;
#X connect 11 0 9 0;
#X connect 11 0 16 0;
#X connect 16 0 9 0;
#X connect 17 0 9 0;
#X connect 18 0 27 0;
#X connect 19 0 34 0;
#X connect 20 0 30 0;
#X connect 20 0 31 1;
#X connect 22 0 31 2;
#X connect 24 0 31 3;
#X connect 25 0 31 4;
#X connect 27 0 22 0;
#X connect 28 0 3 0;
#X connect 28 0 3 1;
#X connect 29 0 28 1;
#X connect 30 0 29 0;
#X connect 31 0 3 0;
#X connect 31 1 3 1;
#X connect 32 0 11 0;
#X connect 33 0 20 0;
#X connect 34 0 35 0;
#X connect 35 0 33 0;
#X coords 0 -1 1 1 140 42 2 100 100;
#X restore 317 118 pd patch;
#X coords 0 -1 1 1 800 83 1 100 100;
