#N canvas 175 98 785 644 10;
#X obj 5 -144 cnv 15 123 20 empty empty MICROPHONE 3 9 0 20 #a4a8c8
#404040 0;
#X obj 15 -86 vu 15 120 empty empty -1 -8 0 10 #404040 #000000 1 0
;
#X obj 236 -118 cnv 15 200 350 empty empty Mixer 20 12 0 14 #e0e0e0
#404040 0;
#X obj 246 196 outlet~;
#X obj 297 196 outlet~;
#X obj 263 -4 env~ 4096 4096;
#X obj 263 56 s mic_prevumetre;
#X obj 121 -87 vu 15 120 empty empty -1 -8 0 10 #404040 #000000 1 0
;
#X obj 14 -109 r mic_prevumetre;
#N canvas 579 250 641 372 init 0;
#X restore 164 -145 pd init;
#X obj 118 -110 r mic_volume_vumetre;
#X obj 356 196 outlet~;
#X obj 407 196 outlet~;
#X obj 237 -244 cnv 15 200 120 empty empty Setting-GAIN 20 12 0 14
#e0e0e0 #404040 0;
#X obj 292 -223 extra/sv mic_gain;
#X obj 237 -176 inlet~;
#X obj 292 -202 f 0;
#X obj 292 -178 / 100;
#X obj 246 123 mixer mic;
#X obj 245 -66 hip~ 8;
#X obj 263 22 - 90;
#X obj 245 -145 *~ 1;
#X connect 5 0 20 0;
#X connect 8 0 1 0;
#X connect 10 0 7 0;
#X connect 14 0 16 0;
#X connect 15 0 21 0;
#X connect 16 0 17 0;
#X connect 17 0 21 1;
#X connect 18 0 3 0;
#X connect 18 1 4 0;
#X connect 18 2 11 0;
#X connect 18 3 12 0;
#X connect 19 0 5 0;
#X connect 19 0 18 0;
#X connect 20 0 6 0;
#X connect 21 0 19 0;
#X coords 0 644 1 643 132 500 0;
