#N canvas 244 134 1383 583 12;
#X obj 269 113 audio/shifter_low 1;
#X obj 273 -26 inlet~;
#X obj 267 181 outlet~;
#X obj 584 168 s low1;
#X obj 403 79 r low1;
#X obj 578 -74 inlet;
#X obj 608 48 extra/sv octaver;
#X obj 607 72 / 100;
#X obj 650 -30 loadbang;
#X msg 650 -5 100;
#X obj 327 12 audio/pitch_light;
#X connect 0 0 2 0;
#X connect 1 0 0 0;
#X connect 1 0 10 0;
#X connect 4 0 0 1;
#X connect 5 0 3 0;
#X connect 6 0 7 0;
#X connect 7 0 3 0;
#X connect 8 0 9 0;
#X connect 9 0 6 1;
