#N canvas 0 23 1467 583 12;
#X obj 337 109 audio/shifter_high 1;
#X obj 411 164 audio/shifter_high 2;
#X obj 327 12 audio/pitch;
#X obj 106 113 audio/shifter_low 1;
#X obj 23 160 audio/shifter_low 2;
#X obj 587 -45 hsl 128 15 -3.14 3.14 0 0 empty empty empty -2 -8 0
10 -262144 -1 -1 505 1;
#X floatatom 674 54 5 0 0 0 - - -;
#X floatatom 674 148 5 0 0 0 - - -;
#X floatatom 775 59 5 0 0 0 - - -;
#X floatatom 775 153 5 0 0 0 - - -;
#X obj 775 31 min 0;
#X obj 273 -26 inlet~;
#X obj 242 294 outlet~;
#X floatatom 1060 58 5 0 0 0 - - -;
#X floatatom 1060 152 5 0 0 0 - - -;
#X floatatom 977 61 5 0 0 0 - - -;
#X floatatom 977 155 5 0 0 0 - - -;
#X obj 1059 285 s high2;
#X obj 977 285 s high1;
#X obj 674 227 s low2;
#X obj 775 232 s low1;
#X obj 546 132 r high2;
#X obj 475 74 r high1;
#X obj 240 79 r low1;
#X obj 43 75 r low2;
#X obj 578 -74 inlet;
#X obj 635 -100 extra/sv octaver;
#X obj 674 91 cos;
#X obj 775 96 sin;
#X obj 775 120 * -1;
#X floatatom 580 -7 5 0 0 0 - - -;
#X obj 674 26 min -1.57;
#X obj 674 115 * -1;
#X obj 1060 30 max 1.57;
#X obj 1060 95 cos;
#X obj 977 99 sin;
#X obj 1060 119 * -1;
#X obj 634 -76 / 31.8;
#X obj 977 33 max 0;
#X obj 977 178 pow 2;
#X floatatom 977 208 5 0 0 0 - - -;
#X obj 1060 177 pow 2;
#X floatatom 1060 207 5 0 0 0 - - -;
#X obj 776 178 pow 2;
#X floatatom 776 208 5 0 0 0 - - -;
#X obj 674 174 pow 2;
#X floatatom 674 204 5 0 0 0 - - -;
#X obj 1062 249 * 1.5;
#X obj 988 251 * 2.4;
#X connect 0 0 12 0;
#X connect 0 1 1 0;
#X connect 1 0 12 0;
#X connect 3 0 12 0;
#X connect 3 1 4 0;
#X connect 4 0 12 0;
#X connect 5 0 10 0;
#X connect 5 0 30 0;
#X connect 5 0 31 0;
#X connect 5 0 33 0;
#X connect 5 0 38 0;
#X connect 6 0 27 0;
#X connect 7 0 45 0;
#X connect 8 0 28 0;
#X connect 9 0 43 0;
#X connect 10 0 8 0;
#X connect 11 0 3 0;
#X connect 11 0 0 0;
#X connect 11 0 2 0;
#X connect 13 0 34 0;
#X connect 14 0 41 0;
#X connect 15 0 35 0;
#X connect 16 0 39 0;
#X connect 21 0 1 1;
#X connect 22 0 0 1;
#X connect 23 0 3 1;
#X connect 24 0 4 1;
#X connect 25 0 5 0;
#X connect 26 0 37 0;
#X connect 27 0 32 0;
#X connect 28 0 29 0;
#X connect 29 0 9 0;
#X connect 31 0 6 0;
#X connect 32 0 7 0;
#X connect 33 0 13 0;
#X connect 34 0 36 0;
#X connect 35 0 16 0;
#X connect 36 0 14 0;
#X connect 37 0 5 0;
#X connect 38 0 15 0;
#X connect 39 0 40 0;
#X connect 40 0 48 0;
#X connect 41 0 42 0;
#X connect 42 0 47 0;
#X connect 43 0 44 0;
#X connect 44 0 20 0;
#X connect 45 0 46 0;
#X connect 46 0 19 0;
#X connect 47 0 17 0;
#X connect 48 0 18 0;
