#N canvas 0 23 450 300 12;
#X obj 69 54 moses 1;
#X obj 84 78 extra/sv pitch;
#X floatatom 84 102 5 0 0 0 - - - 0;
#X obj 70 -3 inlet~;
#X obj 84 125 i;
#X obj 84 149 change;
#X obj 69 30 sigmund~ -npts 2048;
#X connect 0 1 1 1;
#X connect 1 0 2 0;
#X connect 2 0 4 0;
#X connect 3 0 6 0;
#X connect 4 0 5 0;
#X connect 6 0 0 0;
