#N canvas 102 244 450 300 12;
#X obj 84 78 extra/sv pitch;
#X floatatom 84 102 5 0 0 0 - - - 0;
#X obj 70 -3 inlet~;
#X obj 84 125 i;
#X obj 84 149 change;
#X obj 69 24 fiddle~ 1024 1 20 3;
#X floatatom 69 47 5 0 0 0 - - - 0;
#X connect 0 0 1 0;
#X connect 1 0 3 0;
#X connect 2 0 5 0;
#X connect 3 0 4 0;
#X connect 5 0 6 0;
#X connect 6 0 0 1;
